<svg xmlns="http://www.w3.org/2000/svg" viewBox="0 0 162.98 93.31"><defs><style>.cls-1,.cls-3{fill:#2c4594;}.cls-1,.cls-2{fill-rule:evenodd;}.cls-2{fill:#fff;}.cls-4{fill:#2a4594;}</style></defs><g id="Calque_2" data-name="Calque 2"><g id="Calque_1-2" data-name="Calque 1"><path class="cls-1" d="M111.22,27.49,81.78,12.6a.59.59,0,0,0-.55,0L51.79,27.49a.43.43,0,0,0,0,.79L81.23,43.17a.59.59,0,0,0,.55,0l29.44-14.89a.43.43,0,0,0,0-.79"/><path class="cls-1" d="M101.34,30.9a74.34,74.34,0,0,0-39.57,0s0,0,0,0v9.64c-.09,4.9,39.5,5,39.59-.19V30.9Z"/><path class="cls-2" d="M98.38,28.93a59.53,59.53,0,0,0-34,.07c-2.28.68-2.45,1.57-2.41,2.78,0,0,0,0,0,0a61.24,61.24,0,0,1,39.09,0s0,0,0,0c0-1.4-.35-2.17-2.75-2.85"/><path class="cls-2" d="M81.55,38.41c-9.76,0-17.67.93-17.67,2.08s7.91,2.07,17.67,2.07,17.66-.93,17.66-2.07-7.9-2.08-17.66-2.08"/><path class="cls-3" d="M107.29,28.51h-1V39.07h1Z"/><path class="cls-1" d="M106.78,37.35a1.33,1.33,0,1,1-1.26,1.33,1.29,1.29,0,0,1,1.26-1.33"/><path class="cls-1" d="M106.77,39.71h0q1.27,1.39,1.22,6.82a1.09,1.09,0,0,1-1.11,1.1h-.28a1.07,1.07,0,0,1-1.07-1.08q-.06-5.45,1.22-6.84Z"/><path class="cls-1" d="M111.11,51.1c-11.7,1.61-23.41,4.36-28.79,8.84a.13.13,0,0,0,.15.21c7-3.79,19.53-5.81,31-6.25a.13.13,0,0,0,.13-.1q.66-2.16,16.09-53.59a.16.16,0,0,0-.16-.21q-12.77,1.47-27.74,10.71A.16.16,0,0,0,102,11a93,93,0,0,1,22.26-5.84.17.17,0,0,1,.17.21L111.11,51.1"/><path class="cls-1" d="M116.24,54.71c-9.88,1.23-21.91,1.12-29.15,4.88a.13.13,0,0,0,.11.24c7.28-2.51,20.18-2.42,31.36-2.58a.18.18,0,0,0,.14-.09q.72-1.94,17.35-45.9a.16.16,0,0,0-.15-.22,56.13,56.13,0,0,0-8.81,1.26.15.15,0,0,0-.12.1l-1,3.08a.16.16,0,0,0,.17.2c1.46-.17,2.89-.29,4.27-.37a.15.15,0,0,1,.15.21l-14.36,39.2"/><path class="cls-1" d="M119.81,59.87c-6.25-.88-17.43-2.89-28.27.06a.15.15,0,0,0,.06.3c9.89-1.36,21.57,1.14,30.36,2.37a.14.14,0,0,0,.15-.09q.9-2,20.15-44.19a.16.16,0,0,0-.14-.22,55.37,55.37,0,0,0-7.55.29.17.17,0,0,0-.13.1l-1.21,3.12a.16.16,0,0,0,.15.21c1,0,2.05,0,3,0a.15.15,0,0,1,.13.22L119.81,59.87"/><path class="cls-1" d="M52,51.1c11.71,1.61,23.42,4.36,28.8,8.84a.13.13,0,0,1-.15.21c-7-3.79-19.53-5.81-31-6.25a.15.15,0,0,1-.14-.1Q48.79,51.64,33.35.21A.16.16,0,0,1,33.51,0Q46.28,1.47,61.25,10.71a.16.16,0,0,1-.14.28A93,93,0,0,0,38.85,5.15a.16.16,0,0,0-.17.21Q52,51.1,52,51.1"/><path class="cls-1" d="M46.83,54.71c9.88,1.23,21.91,1.12,29.15,4.88a.13.13,0,0,1-.11.24c-7.28-2.51-20.18-2.42-31.36-2.58a.16.16,0,0,1-.14-.09Q43.65,55.22,27,11.26a.16.16,0,0,1,.15-.22A56.3,56.3,0,0,1,36,12.3a.15.15,0,0,1,.12.1l.95,3.08a.15.15,0,0,1-.16.2c-1.47-.17-2.89-.29-4.27-.37a.15.15,0,0,0-.15.21l14.36,39.2"/><path class="cls-1" d="M43.26,59.87c6.25-.88,17.43-2.89,28.27.06a.15.15,0,0,1-.06.3c-9.89-1.36-21.57,1.14-30.36,2.37a.15.15,0,0,1-.16-.09L20.81,18.32a.15.15,0,0,1,.13-.22,55.37,55.37,0,0,1,7.55.29.17.17,0,0,1,.13.1l1.22,3.12a.16.16,0,0,1-.15.21c-1,0-2.05,0-3,0a.16.16,0,0,0-.14.22Q43.27,59.87,43.26,59.87"/><path class="cls-4" d="M0,92.94V69.11H9.66c3.52,0,6.14.93,7.84,2.8s2.55,5,2.55,9.26q0,6.1-2.51,8.94T9.66,92.94Zm4-3.11H9a9.74,9.74,0,0,0,3.88-.68,4.51,4.51,0,0,0,2.33-2.57A14.71,14.71,0,0,0,16,81.17a16.42,16.42,0,0,0-.7-5.43A4.61,4.61,0,0,0,13.08,73,9,9,0,0,0,9,72.26H4Z"/><path class="cls-4" d="M24,92.94V69.11h4V92.94Z"/><path class="cls-4" d="M32,92.94l9.11-23.83h4.51l9,23.83H50.5L48.14,86.8H38.55l-2.36,6.14Zm7.18-9.25h8.29L43.33,72.78Z"/><path class="cls-4" d="M58.61,92.94V69.11h4V89.83H74.85v3.11Z"/><path class="cls-4" d="M77.29,92.94V89.8H80.7v3.14Z"/><path class="cls-4" d="M84.65,92.94V75.4h3.7l.19,1.85a10.6,10.6,0,0,1,2.85-1.63A9.33,9.33,0,0,1,94.72,75a6,6,0,0,1,2.94.61,4.1,4.1,0,0,1,1.61,1.69,10.67,10.67,0,0,1,2.81-1.65,10.12,10.12,0,0,1,3.81-.65,5.82,5.82,0,0,1,4.48,1.56,6.8,6.8,0,0,1,1.44,4.77V92.94h-4V81.77a3.84,3.84,0,0,0-.85-2.85,3.92,3.92,0,0,0-2.77-.82,6.39,6.39,0,0,0-2.39.45,5.1,5.1,0,0,0-1.94,1.33,5.57,5.57,0,0,1,.15.85q0,.45,0,1V92.94H96.35V81.8A4.74,4.74,0,0,0,95.68,79a3,3,0,0,0-2.52-.89,5.33,5.33,0,0,0-2.46.61,10.06,10.06,0,0,0-2.09,1.47V92.94Z"/><path class="cls-4" d="M124.84,93.31q-4.59,0-7.11-2.26t-2.51-6.92a9.75,9.75,0,0,1,2.14-6.66c1.43-1.62,3.6-2.44,6.51-2.44,2.67,0,4.67.7,6,2.09a7.46,7.46,0,0,1,2,5.39v3.25H119.06a4.48,4.48,0,0,0,1.85,3.52,9.23,9.23,0,0,0,4.74,1,15.37,15.37,0,0,0,2.74-.26,12.37,12.37,0,0,0,2.44-.67v3a11.31,11.31,0,0,1-2.72.78A19.88,19.88,0,0,1,124.84,93.31Zm-5.78-10.17h9.29V81.91a3.87,3.87,0,0,0-1-2.83,4.62,4.62,0,0,0-3.36-1c-1.88,0-3.17.4-3.87,1.22A5.81,5.81,0,0,0,119.06,83.14Z"/><path class="cls-4" d="M135.82,92.94V75.4h3.7l.19,1.85a10.6,10.6,0,0,1,2.85-1.63,9.33,9.33,0,0,1,3.33-.59,6,6,0,0,1,2.94.61,4.1,4.1,0,0,1,1.61,1.69,10.67,10.67,0,0,1,2.81-1.65,10.12,10.12,0,0,1,3.81-.65,5.83,5.83,0,0,1,4.48,1.56A6.8,6.8,0,0,1,163,81.36V92.94h-4V81.77a3.84,3.84,0,0,0-.85-2.85,3.93,3.93,0,0,0-2.77-.82,6.39,6.39,0,0,0-2.39.45,5.1,5.1,0,0,0-1.94,1.33,5.57,5.57,0,0,1,.15.85q0,.45,0,1V92.94h-3.73V81.8a4.74,4.74,0,0,0-.67-2.81,3,3,0,0,0-2.52-.89,5.33,5.33,0,0,0-2.46.61,10.06,10.06,0,0,0-2.09,1.47V92.94Z"/></g></g></svg>