<svg xmlns="http://www.w3.org/2000/svg" viewBox="0 0 121.48 62.6"><defs><style>.cls-1,.cls-3{fill:#2c4594;}.cls-1,.cls-2{fill-rule:evenodd;}.cls-2{fill:#fff;}</style></defs><g id="Calque_2" data-name="Calque 2"><g id="Calque_1-2" data-name="Calque 1"><path class="cls-1" d="M90.43,27.49,61,12.6a.57.57,0,0,0-.54,0L31,27.49a.43.43,0,0,0,0,.79L60.44,43.17a.57.57,0,0,0,.54,0L90.43,28.28a.43.43,0,0,0,0-.79"/><path class="cls-1" d="M80.55,30.9a74.37,74.37,0,0,0-39.58,0,0,0,0,0,0,0,0v9.64c-.1,4.9,39.49,5,39.59-.19V30.9Z"/><path class="cls-2" d="M77.58,28.93a59.5,59.5,0,0,0-34,.07c-2.28.68-2.45,1.57-2.42,2.78,0,0,0,0,0,0a61.27,61.27,0,0,1,39.1,0s0,0,0,0c0-1.4-.36-2.17-2.75-2.85"/><path class="cls-2" d="M60.75,38.41c-9.75,0-17.66.93-17.66,2.08S51,42.56,60.75,42.56s17.67-.93,17.67-2.07-7.91-2.08-17.67-2.08"/><path class="cls-3" d="M86.5,28.51h-1V39.07h1Z"/><path class="cls-1" d="M86,37.35a1.33,1.33,0,1,1-1.25,1.33A1.3,1.3,0,0,1,86,37.35"/><path class="cls-1" d="M86,39.71h0q1.28,1.39,1.22,6.82a1.08,1.08,0,0,1-1.11,1.1h-.27a1.05,1.05,0,0,1-1.07-1.08c0-3.63.36-5.91,1.22-6.84Z"/><path class="cls-1" d="M90.32,51.1c-11.71,1.61-23.42,4.36-28.8,8.84-.12.1,0,.29.16.21,7-3.79,19.53-5.81,31-6.25a.14.14,0,0,0,.13-.1L108.93.21a.17.17,0,0,0-.17-.21Q96,1.47,81,10.71a.16.16,0,0,0,.14.28,92.8,92.8,0,0,1,22.26-5.84.16.16,0,0,1,.16.21Q90.33,51.1,90.32,51.1"/><path class="cls-1" d="M95.45,54.71c-9.88,1.23-21.92,1.12-29.15,4.88a.13.13,0,0,0,.1.24c7.28-2.51,20.18-2.42,31.37-2.58a.16.16,0,0,0,.13-.09l17.36-45.9a.16.16,0,0,0-.15-.22,56.42,56.42,0,0,0-8.82,1.26.14.14,0,0,0-.11.1l-1,3.08a.16.16,0,0,0,.17.2c1.46-.17,2.88-.29,4.26-.37a.16.16,0,0,1,.16.21q-14.37,39.2-14.36,39.2"/><path class="cls-1" d="M99,59.87C92.76,59,81.58,57,70.74,59.93a.15.15,0,0,0,.06.3c9.89-1.36,21.58,1.14,30.36,2.37a.14.14,0,0,0,.16-.09l20.14-44.19a.15.15,0,0,0-.13-.22,55.37,55.37,0,0,0-7.55.29.17.17,0,0,0-.13.1l-1.21,3.12a.15.15,0,0,0,.14.21c1,0,2,0,3,0a.16.16,0,0,1,.14.22Q99,59.87,99,59.87"/><path class="cls-1" d="M31.16,51.1c11.71,1.61,23.42,4.36,28.8,8.84a.13.13,0,0,1-.16.21c-7-3.79-19.53-5.81-31-6.25a.14.14,0,0,1-.14-.1L12.55.21A.17.17,0,0,1,12.72,0Q25.47,1.47,40.46,10.71a.16.16,0,0,1-.14.28A93,93,0,0,0,18.05,5.15a.16.16,0,0,0-.16.21Q31.15,51.1,31.16,51.1"/><path class="cls-1" d="M26,54.71c9.89,1.23,21.92,1.12,29.15,4.88a.13.13,0,0,1-.1.24c-7.28-2.51-20.18-2.42-31.37-2.58a.16.16,0,0,1-.13-.09L6.22,11.26A.16.16,0,0,1,6.38,11a56.47,56.47,0,0,1,8.81,1.26.14.14,0,0,1,.11.1l1,3.08a.16.16,0,0,1-.17.2c-1.46-.17-2.88-.29-4.26-.37a.15.15,0,0,0-.15.21Q26,54.72,26,54.72"/><path class="cls-1" d="M22.46,59.87c6.25-.88,17.43-2.89,28.28.06a.15.15,0,0,1-.07.3c-9.88-1.36-21.57,1.14-30.35,2.37a.15.15,0,0,1-.16-.09L0,18.32a.16.16,0,0,1,.14-.22,55.37,55.37,0,0,1,7.55.29.17.17,0,0,1,.13.1L9,21.61a.16.16,0,0,1-.15.21c-1,0-2.05,0-3,0a.15.15,0,0,0-.13.22Q22.46,59.87,22.47,59.87"/></g></g></svg>